<svg width="21" height="19" viewBox="0 0 21 19" fill="none" xmlns="http://www.w3.org/2000/svg">
<path d="M19.2603 2.31121C16.9766 0.138043 13.2595 0.138043 10.975 2.31072L10.5 2.76189L10.0255 2.31093C7.74084 0.137961 4.02421 0.138207 1.73951 2.31093C0.617736 3.37791 0 4.79315 0 6.29555C0 7.79845 0.617736 9.21345 1.73968 10.2809L9.9928 18.1162C10.1348 18.2513 10.3175 18.3186 10.5 18.3186C10.6825 18.3186 10.865 18.251 11.0072 18.116L19.2603 10.2809C20.382 9.21369 21 7.79849 21 6.2958C21 4.79315 20.382 3.37815 19.2603 2.31121ZM18.2449 9.21246L10.5 16.5657L2.75531 9.21271C1.9288 8.42677 1.47369 7.39075 1.47369 6.2958C1.47369 5.20085 1.9288 4.16483 2.75531 3.37889C3.61741 2.55854 4.74969 2.14863 5.88222 2.14863C7.01498 2.14863 8.14775 2.55903 9.00986 3.37938L9.99231 4.31249C10.2767 4.58291 10.723 4.58291 11.0074 4.31249L11.9901 3.37889C13.7146 1.73843 16.5202 1.73843 18.2447 3.37889C19.071 4.16487 19.5263 5.20085 19.5263 6.2958C19.5263 7.39075 19.071 8.42652 18.2449 9.21246Z" fill="#353439"/>
</svg>
