<svg width="53" height="53" viewBox="0 0 53 53" fill="none" xmlns="http://www.w3.org/2000/svg">
<g clip-path="url(#clip0)">
<path d="M45.9467 20.3842L14.6435 1.08836C12.3788 -0.305899 9.64066 -0.363868 7.3189 0.933289C4.99715 2.23024 3.61107 4.59257 3.61107 7.252V45.668C3.61107 49.6891 6.85111 52.9781 10.8334 52.9999C10.8442 52.9999 10.8551 53 10.8658 53C12.1102 52.9999 13.4071 52.6098 14.6183 51.8707C15.5927 51.2762 15.9007 50.0044 15.3062 49.0302C14.7117 48.0557 13.4397 47.7478 12.4656 48.3423C11.8991 48.6878 11.3458 48.8666 10.8556 48.8665C9.35309 48.8583 7.74435 47.5712 7.74435 45.6681V7.2521C7.74435 6.11125 8.33895 5.09814 9.33477 4.54175C10.3307 3.98535 11.5051 4.01019 12.4753 4.60758L43.7786 23.9035C44.7195 24.4827 45.2579 25.4486 45.2556 26.5536C45.2533 27.6584 44.711 28.6221 43.765 29.1994L21.1326 43.0569C20.1591 43.6529 19.8531 44.9252 20.4492 45.8986C21.0451 46.8721 22.3174 47.1781 23.2909 46.582L45.9206 32.7262C48.0873 31.4044 49.3839 29.1002 49.3891 26.5618C49.3943 24.0238 48.1069 21.7142 45.9467 20.3842Z" fill="url(#paint0_linear)"/>
</g>
<defs>
<linearGradient id="paint0_linear" x1="26.5001" y1="-3.8147e-05" x2="26.5001" y2="53" gradientUnits="userSpaceOnUse">
<stop stop-color="white"/>
<stop offset="0.9999" stop-color="white"/>
<stop offset="1" stop-color="#483895"/>
</linearGradient>
<clipPath id="clip0">
<rect width="53" height="53" fill="white"/>
</clipPath>
</defs>
</svg>
