<svg width="0" height="0" class="hidden">
  <symbol xmlns="http://www.w3.org/2000/svg" viewBox="0 0 511.03 511.03" id="play">
    <path d="M416.809 200.418L152.282 14.389C130.151-.972 107.89-4.358 89.145 5.798c-17.054 8.591-27.338 29.03-27.338 54.676v390.802c0 25.646 10.284 46.084 27.338 54.676 6.769 3.385 13.669 5.077 22.131 5.077 11.977 0 27.338-5.077 41.007-11.977L416.81 313.023c20.439-13.669 32.414-34.107 32.414-56.368-.001-22.259-11.977-42.698-32.415-56.237zm-20.568 83.575L131.714 470.022c-10.284 8.591-20.439 10.285-27.338 6.769-6.769-3.385-10.284-13.669-10.284-25.646V60.344c0-13.669 3.385-22.13 10.284-25.646 1.692-1.692 5.077-1.692 6.769-1.692 5.077 0 13.669 1.692 22.13 8.591l264.527 186.029c10.284 6.769 17.054 17.053 17.054 27.338.261 10.285-6.639 20.438-18.615 29.029z"></path>
  </symbol>
  <symbol viewBox="0 0 18 18" fill="none" xmlns="http://www.w3.org/2000/svg" id="search">
    <path d="M17.89 17.36l-5.477-5.477a7.088 7.088 0 0 0 1.837-4.758A7.133 7.133 0 0 0 7.125 0 7.133 7.133 0 0 0 0 7.125a7.133 7.133 0 0 0 7.125 7.125c1.83 0 3.495-.7 4.758-1.837l5.477 5.477a.374.374 0 0 0 .53 0 .375.375 0 0 0 0-.53zM7.125 13.5A6.382 6.382 0 0 1 .75 7.125 6.382 6.382 0 0 1 7.125.75 6.382 6.382 0 0 1 13.5 7.125 6.382 6.382 0 0 1 7.125 13.5z"
      fill="#fff"></path>
  </symbol>
  <symbol viewBox="0 -10 511.987 511" xmlns="http://www.w3.org/2000/svg" id="star">
    <path d="M510.652 185.902a27.158 27.158 0 0 0-23.425-18.71l-147.774-13.419-58.433-136.77C276.71 6.98 266.898.494 255.996.494s-20.715 6.487-25.023 16.534l-58.434 136.746-147.797 13.418a27.208 27.208 0 0 0-23.402 18.71c-3.371 10.368-.258 21.739 7.957 28.907l111.7 97.96-32.938 145.09c-2.41 10.668 1.73 21.696 10.582 28.094 4.757 3.438 10.324 5.188 15.937 5.188 4.84 0 9.64-1.305 13.95-3.883l127.468-76.184 127.422 76.184c9.324 5.61 21.078 5.097 29.91-1.305a27.223 27.223 0 0 0 10.582-28.094l-32.937-145.09 111.699-97.94a27.224 27.224 0 0 0 7.98-28.927zm0 0"></path>
  </symbol>
  <symbol viewBox="0 0 27 27" fill="none" xmlns="http://www.w3.org/2000/svg" id="update">
    <path d="M3.243 14.745a10.681 10.681 0 0 1-.079-1.245c0-5.664 4.672-10.336 10.336-10.336 2.642 0 5.115 1.065 6.935 2.726l-.913.929a.809.809 0 0 0-.205.79.828.828 0 0 0 .6.538c.16.032 5.391 1.718 5.058 1.651.424.141 1.05-.31.933-.933l-1.123-5.638a.794.794 0 0 0-.554-.6.79.79 0 0 0-.775.205l-.775.76C20.292 1.36 17.012 0 13.5 0 6.08 0 0 6.08 0 13.5v.031c0 .446.02.791.044 1.055a.79.79 0 0 0 .633.704l1.625.325a.792.792 0 0 0 .941-.87zm23.085-3.036l-1.63-.333a.792.792 0 0 0-.944.871c.057.462.082.91.082 1.253 0 5.664-4.672 10.336-10.336 10.336-2.642 0-5.115-1.065-6.935-2.742l.913-.913c.205-.205.284-.506.205-.79a.828.828 0 0 0-.6-.538c-.16-.033-5.391-1.718-5.058-1.651a.775.775 0 0 0-.712.221.788.788 0 0 0-.221.712l1.123 5.585a.792.792 0 0 0 .554.6c.33.084.605-.017.775-.205l.76-.759C6.691 25.586 9.971 27 13.5 27 20.92 27 27 20.92 27 13.5v-.048c0-.35-.013-.694-.042-1.037a.79.79 0 0 0-.63-.706z"
      fill="#fff"></path>
  </symbol>
  <symbol viewBox="0 0 23 29" fill="none" xmlns="http://www.w3.org/2000/svg" id="arrow">
    <path d="M11.5.625c-.604 0-1.094.518-1.094 1.156v23.067l-7.958-8.833a1.053 1.053 0 0 0-1.546-.04 1.203 1.203 0 0 0-.038 1.635l9.089 10.087a2.11 2.11 0 0 0 1.547.678c.584 0 1.134-.24 1.565-.698l9.07-10.067c.417-.463.4-1.194-.037-1.635a1.052 1.052 0 0 0-1.546.04l-7.958 8.87V1.78c0-.638-.49-1.156-1.094-1.156z"
      fill="#fff"></path>
  </symbol>
  <symbol viewBox="0 0 512 512" xmlns="http://www.w3.org/2000/svg" id="clock">
    <path d="M256 512C114.836 512 0 397.164 0 256S114.836 0 256 0s256 114.836 256 256-114.836 256-256 256zm0-480C132.48 32 32 132.48 32 256s100.48 224 224 224 224-100.48 224-224S379.52 32 256 32zm0 0"></path>
    <path d="M368 394.668a15.879 15.879 0 0 1-11.309-4.695l-112-112A16.002 16.002 0 0 1 240 266.668V117.332c0-8.832 7.168-16 16-16s16 7.168 16 16v142.7L379.309 367.34c6.25 6.25 6.25 16.383 0 22.633A15.879 15.879 0 0 1 368 394.668zm0 0"></path>
  </symbol>
  <symbol viewBox="0 0 24 24" fill="none" xmlns="http://www.w3.org/2000/svg" id="close">
    <g clip-path="url(#clip0)">
      <path d="M12.585 12.667l9.822-9.821a.885.885 0 1 0-1.252-1.253l-9.822 9.822-9.822-9.822A.885.885 0 1 0 .26 2.846l9.822 9.821L.259 22.49a.885.885 0 1 0 1.252 1.252l9.822-9.821 9.822 9.821a.882.882 0 0 0 1.252 0 .885.885 0 0 0 0-1.252l-9.822-9.822z"
        fill="#fff"></path>
    </g>
    <defs>
      <clipPath id="clip0">
        <path fill="#fff" transform="translate(0 1.333)" d="M0 0h22.667v22.667H0z"></path>
      </clipPath>
    </defs>
  </symbol>
  <symbol viewBox="0 -28 512 512" xmlns="http://www.w3.org/2000/svg" id="fav">
    <path d="M471.383 44.578C444.879 15.832 408.512 0 368.973 0c-29.555 0-56.621 9.344-80.45 27.77C276.5 37.07 265.605 48.45 256 61.73c-9.602-13.277-20.5-24.66-32.527-33.96C199.648 9.344 172.582 0 143.027 0c-39.539 0-75.91 15.832-102.414 44.578C14.426 72.988 0 111.801 0 153.871c0 43.3 16.137 82.938 50.781 124.742 30.992 37.395 75.535 75.356 127.117 119.313 17.614 15.012 37.579 32.027 58.309 50.152A30.023 30.023 0 0 0 256 455.516a30.03 30.03 0 0 0 19.785-7.43c20.73-18.129 40.707-35.152 58.328-50.172 51.575-43.95 96.117-81.906 127.11-119.305C495.867 236.81 512 197.172 512 153.867c0-42.066-14.426-80.879-40.617-109.289zm0 0"></path>
  </symbol>
  <symbol viewBox="0 0 24 24" fill="none" xmlns="http://www.w3.org/2000/svg" id="menu">
    <path d="M23.063 10.438H.938a.937.937 0 1 0 0 1.874h22.125a.937.937 0 1 0 0-1.874zm0-6.875H.938a.937.937 0 1 0 0 1.874h22.125a.937.937 0 1 0 0-1.875zm0 13.75H.938a.937.937 0 1 0 0 1.875h22.125a.937.937 0 1 0 0-1.875z" fill="#fff"></path>
  </symbol>
</svg>